<svg width="12" height="12" viewBox="0 0 12 12" fill="none" xmlns="http://www.w3.org/2000/svg">
<path fill-rule="evenodd" clip-rule="evenodd" d="M5.99996 4.82133L10.4107 0.410582C10.7361 0.0851447 11.2638 0.0851447 11.5892 0.410582C11.9147 0.736018 11.9147 1.26366 11.5892 1.58909L7.17847 5.99984L11.5892 10.4106C11.9147 10.736 11.9147 11.2637 11.5892 11.5891C11.2638 11.9145 10.7361 11.9145 10.4107 11.5891L5.99996 7.17835L1.58921 11.5891C1.26378 11.9145 0.736141 11.9145 0.410704 11.5891C0.0852667 11.2637 0.0852667 10.736 0.410704 10.4106L4.82145 5.99984L0.410704 1.58909C0.0852667 1.26366 0.0852667 0.736018 0.410704 0.410582C0.736141 0.0851447 1.26378 0.0851447 1.58921 0.410582L5.99996 4.82133Z" fill="black"/>
<mask id="mask0_9_201" style="mask-type:alpha" maskUnits="userSpaceOnUse" x="0" y="0" width="12" height="12">
<path fill-rule="evenodd" clip-rule="evenodd" d="M5.99996 4.82133L10.4107 0.410582C10.7361 0.0851447 11.2638 0.0851447 11.5892 0.410582C11.9147 0.736018 11.9147 1.26366 11.5892 1.58909L7.17847 5.99984L11.5892 10.4106C11.9147 10.736 11.9147 11.2637 11.5892 11.5891C11.2638 11.9145 10.7361 11.9145 10.4107 11.5891L5.99996 7.17835L1.58921 11.5891C1.26378 11.9145 0.736141 11.9145 0.410704 11.5891C0.0852667 11.2637 0.0852667 10.736 0.410704 10.4106L4.82145 5.99984L0.410704 1.58909C0.0852667 1.26366 0.0852667 0.736018 0.410704 0.410582C0.736141 0.0851447 1.26378 0.0851447 1.58921 0.410582L5.99996 4.82133Z" fill="white"/>
</mask>
<g mask="url(#mask0_9_201)">
<rect x="-4.00006" y="-4" width="20" height="20" fill="#58A33D"/>
</g>
</svg>
