<svg width="174" height="214" viewBox="0 0 174 214" fill="none" xmlns="http://www.w3.org/2000/svg">
<path d="M0 8.13315V205.369C0 209.822 3.66707 213.489 8.11994 213.489H128.347V176.818C128.347 172.366 132.015 168.698 136.467 168.698H173.138V8.13315C173.138 3.68028 169.471 0.0132054 165.018 0.0132054H8.11994C3.66707 -0.248728 0 3.41834 0 8.13315Z" fill="#D7D7D7"/>
<path d="M128.347 213.489L173.4 168.437H136.729C132.276 168.437 128.609 172.104 128.609 176.556V213.489H128.347Z" fill="#E6E9EE"/>
<path d="M44.2668 26.7305H19.907V51.0903H44.2668V26.7305Z" fill="#E31C79"/>
<path d="M44.2668 68.1162H19.907V92.476H44.2668V68.1162Z" fill="#E31C79"/>
<path d="M44.2668 109.502H19.907V133.862H44.2668V109.502Z" fill="#E31C79"/>
<path d="M153.493 26.7305H55.268V33.5407H153.493V26.7305Z" fill="#ABABAB"/>
<path d="M117.084 44.2803H55.268V51.0905H117.084V44.2803Z" fill="#ABABAB"/>
<path d="M153.493 68.1162H55.268V74.9265H153.493V68.1162Z" fill="#ABABAB"/>
<path d="M117.084 85.666H55.268V92.4763H117.084V85.666Z" fill="#ABABAB"/>
<path d="M153.493 109.502H55.268V116.312H153.493V109.502Z" fill="#ABABAB"/>
<path d="M117.084 127.051H55.268V133.861H117.084V127.051Z" fill="#ABABAB"/>
</svg>
