<svg width="242" height="87" viewBox="0 0 242 87" fill="none" xmlns="http://www.w3.org/2000/svg">
<g style="mix-blend-mode:lighten">
<path d="M38.9344 19.3419V29.9417L49.4113 35.9958V50.0354L38.9344 56.0847V66.6893L58.5958 55.3328V30.6935L38.9344 19.3419ZM38.9344 19.3419V29.9417L49.4113 35.9958V50.0354L38.9344 56.0847V66.6893L58.5958 55.3328V30.6935L38.9344 19.3419ZM38.9344 56.0847V66.6893L58.5958 55.3328V30.6935L38.9344 19.3419V29.9417L49.4113 35.9958V50.0354L38.9344 56.0847ZM37.2587 2.28882e-05L0 21.5041V64.5222L25.0324 78.9746V68.365L25.0619 60.6155L35.583 66.6893V56.0847L25.1012 50.0354V35.9958L35.583 29.9417V19.3419L15.9168 30.6935V63.102L9.18446 59.2199V26.8065L37.2587 10.5997L65.3281 26.8065V59.2199L37.2587 75.4266L30.5903 71.574V82.1835L37.2587 86.0312L74.5076 64.5222V21.5041L37.2587 2.28882e-05ZM38.9344 19.3419V29.9417L49.4113 35.9958V50.0354L38.9344 56.0847V66.6893L58.5958 55.3328V30.6935L38.9344 19.3419ZM38.9344 19.3419V29.9417L49.4113 35.9958V50.0354L38.9344 56.0847V66.6893L58.5958 55.3328V30.6935L38.9344 19.3419Z" fill="#D8D8D8"/>
<path d="M96.0068 44.0745C95.3238 44.6298 94.3262 44.9099 93.0191 44.9099H89.5202V38.441C89.5202 38.4395 89.5217 38.438 89.5232 38.438H93.0191C94.3262 38.438 95.3238 38.7181 96.0068 39.2734C96.6948 39.8287 97.0388 40.6297 97.0388 41.6715C97.0388 42.7182 96.6948 43.5192 96.0068 44.0745ZM97.4909 37.9859C96.4196 37.0915 94.9503 36.6444 93.0829 36.6444H87.4612V51.0673H89.5173C89.5187 51.0673 89.5202 51.0658 89.5202 51.0643V46.7016C89.5202 46.7001 89.5217 46.6986 89.5232 46.6986H93.0829C94.9503 46.6986 96.4196 46.2564 97.4909 45.362C98.5622 44.4676 99.0978 43.2391 99.0978 41.6715C99.0978 40.1088 98.5622 38.8803 97.4909 37.9859Z" fill="#D8D8D8"/>
<path d="M107.693 44.9295H104.189V38.441C104.189 38.4395 104.19 38.438 104.192 38.438H107.693C108.995 38.438 109.992 38.7181 110.675 39.2734C111.363 39.8287 111.707 40.6297 111.707 41.6715C111.707 42.7182 111.363 43.5192 110.675 44.0843C109.992 44.6494 108.995 44.9295 107.693 44.9295ZM110.595 46.2264C111.615 45.8676 112.396 45.2976 112.946 44.5168C113.491 43.7354 113.766 42.787 113.766 41.6715C113.766 40.1088 113.231 38.8803 112.16 37.9859C111.088 37.0915 109.619 36.6444 107.752 36.6444H102.13V51.0673H104.186C104.187 51.0673 104.189 51.0658 104.189 51.0643V46.6819C104.189 46.6804 104.19 46.679 104.192 46.679H107.752C107.928 46.679 108.155 46.6741 108.43 46.6544C108.572 46.6446 108.71 46.7085 108.788 46.8215L111.648 50.9002C111.727 51.0034 111.845 51.0673 111.978 51.0673H113.241C113.565 51.0673 113.757 50.7036 113.57 50.4383L110.595 46.2264Z" fill="#D8D8D8"/>
<path d="M128.469 46.6887C127.978 47.5339 127.315 48.1973 126.469 48.6789C125.624 49.1605 124.676 49.4013 123.614 49.4013C122.558 49.4013 121.599 49.1605 120.739 48.6789C119.884 48.1973 119.211 47.5339 118.725 46.6887C118.233 45.8435 117.992 44.9 117.992 43.8582C117.992 42.8115 118.233 41.868 118.725 41.0227C119.211 40.1775 119.884 39.519 120.739 39.0374C121.599 38.5559 122.558 38.3151 123.614 38.3151C124.676 38.3151 125.624 38.5559 126.469 39.0374C127.315 39.519 127.978 40.1775 128.469 41.0227C128.956 41.868 129.202 42.8115 129.202 43.8582C129.202 44.9 128.956 45.8435 128.469 46.6887ZM130.273 40.0792C129.609 38.9588 128.695 38.0792 127.531 37.4404C126.361 36.8015 125.059 36.4821 123.614 36.4821C122.16 36.4821 120.848 36.8015 119.683 37.4404C118.513 38.0792 117.594 38.9588 116.931 40.0891C116.263 41.2144 115.933 42.4724 115.933 43.8582C115.933 45.244 116.263 46.502 116.931 47.6273C117.594 48.7526 118.513 49.6372 119.683 50.276C120.848 50.9148 122.16 51.2343 123.614 51.2343C125.059 51.2343 126.361 50.9148 127.531 50.276C128.695 49.6372 129.609 48.7575 130.273 47.6371C130.931 46.5167 131.261 45.2587 131.261 43.8582C131.261 42.4577 130.931 41.1947 130.273 40.0792Z" fill="#D8D8D8"/>
<path d="M142.961 44.0745C142.273 44.6298 141.281 44.9099 139.973 44.9099H136.473C136.471 44.9099 136.47 44.9084 136.47 44.9069V38.441C136.47 38.4395 136.471 38.438 136.473 38.438H139.973C141.281 38.438 142.273 38.7181 142.961 39.2734C143.649 39.8287 143.993 40.6297 143.993 41.6715C143.993 42.7182 143.649 43.5192 142.961 44.0745ZM144.445 37.9859C143.374 37.0915 141.905 36.6444 140.037 36.6444H134.414C134.412 36.6444 134.411 36.6458 134.411 36.6473V51.0673H136.47V46.7016C136.47 46.7001 136.471 46.6986 136.473 46.6986H140.037C141.905 46.6986 143.374 46.2564 144.445 45.362C145.516 44.4676 146.052 43.2391 146.052 41.6715C146.052 40.1088 145.516 38.8803 144.445 37.9859Z" fill="#D8D8D8"/>
<path d="M160.647 46.6887C160.16 47.5339 159.497 48.1973 158.652 48.6789C157.807 49.1605 156.853 49.4013 155.797 49.4013C154.74 49.4013 153.782 49.1605 152.922 48.6789C152.062 48.1973 151.394 47.5339 150.902 46.6887C150.416 45.8435 150.175 44.9 150.175 43.8582C150.175 42.8115 150.416 41.868 150.902 41.0227C151.394 40.1775 152.062 39.519 152.922 39.0374C153.782 38.5559 154.74 38.3151 155.797 38.3151C156.853 38.3151 157.807 38.5559 158.652 39.0374C159.497 39.519 160.16 40.1775 160.647 41.0227C161.138 41.868 161.379 42.8115 161.379 43.8582C161.379 44.9 161.138 45.8435 160.647 46.6887ZM162.45 40.0792C161.792 38.9588 160.878 38.0792 159.713 37.4404C158.544 36.8015 157.242 36.4821 155.797 36.4821C154.342 36.4821 153.03 36.8015 151.861 37.4404C150.696 38.0792 149.777 38.9588 149.114 40.0891C148.445 41.2144 148.111 42.4724 148.111 43.8582C148.111 45.244 148.445 46.502 149.114 47.6273C149.777 48.7526 150.696 49.6372 151.861 50.276C153.03 50.9148 154.342 51.2343 155.797 51.2343C157.242 51.2343 158.544 50.9148 159.713 50.276C160.878 49.6372 161.792 48.7575 162.45 47.6371C163.109 46.5167 163.443 45.2587 163.443 43.8582C163.443 42.4577 163.109 41.1947 162.45 40.0792Z" fill="#D8D8D8"/>
<path d="M176.767 36.6444H166.596C166.595 36.6444 166.593 36.6458 166.593 36.6473V51.0673H168.652V45.2391H175.883C175.884 45.2391 175.886 45.2377 175.886 45.2362V43.4681C175.886 43.4666 175.884 43.4651 175.883 43.4651H168.655C168.654 43.4651 168.652 43.4637 168.652 43.4622V38.441C168.652 38.4395 168.654 38.438 168.655 38.438H176.77V36.6473C176.77 36.6458 176.769 36.6444 176.767 36.6444Z" fill="#D8D8D8"/>
<path d="M186.869 45.8141H181.876C181.586 45.8141 181.394 45.5192 181.512 45.2539L184.004 39.583C184.146 39.2636 184.598 39.2636 184.741 39.583L187.237 45.2539C187.355 45.5192 187.159 45.8141 186.869 45.8141ZM191.699 50.5021L185.512 36.8802C185.443 36.7377 185.301 36.6444 185.144 36.6444H183.62C183.463 36.6444 183.321 36.7377 183.257 36.8802L177.09 50.5021C176.967 50.7675 177.163 51.0673 177.453 51.0673H178.692C178.854 51.0673 178.996 50.9739 179.06 50.8265L180.436 47.7011C180.5 47.5586 180.642 47.4652 180.805 47.4652H187.945C188.102 47.4652 188.245 47.5586 188.313 47.7011L189.684 50.8265C189.748 50.9739 189.896 51.0673 190.053 51.0673H191.331C191.625 51.0673 191.817 50.7675 191.699 50.5021Z" fill="#D8D8D8"/>
<path d="M206.098 36.6444H204.442V46.2613C204.442 46.6397 203.965 46.8116 203.729 46.5119L195.906 36.7967C195.832 36.7033 195.714 36.6444 195.596 36.6444H194.1C194.099 36.6444 194.097 36.6458 194.097 36.6473V51.0673H196.156V41.4504C196.156 41.072 196.633 40.9049 196.874 41.1997L204.692 50.9198C204.766 51.0132 204.884 51.0673 205.002 51.0673H206.098C206.324 51.0673 206.501 50.8904 206.501 50.6692V37.0473C206.501 36.8262 206.324 36.6444 206.098 36.6444Z" fill="#D8D8D8"/>
<path d="M221.911 46.6888C221.43 47.5094 220.746 48.1434 219.862 48.5955C218.977 49.0476 217.95 49.2736 216.781 49.2736H212.889V38.441C212.889 38.4395 212.89 38.438 212.892 38.438H216.781C217.95 38.438 218.977 38.6641 219.862 39.1211C220.746 39.5732 221.43 40.2071 221.911 41.0228C222.393 41.8435 222.633 42.787 222.633 43.8583C222.633 44.9295 222.393 45.8731 221.911 46.6888ZM223.715 40.099C223.061 39.0031 222.147 38.1579 220.963 37.5535C219.783 36.949 218.427 36.6444 216.904 36.6444H210.828C210.826 36.6444 210.825 36.6458 210.825 36.6473V51.0673H216.904C218.427 51.0673 219.783 50.7675 220.963 50.1631C222.147 49.5586 223.061 48.7085 223.715 47.6176C224.368 46.5266 224.693 45.2735 224.693 43.8583C224.693 42.443 224.368 41.1899 223.715 40.099Z" fill="#D8D8D8"/>
<path d="M239.209 46.6887C238.717 47.5339 238.054 48.1973 237.209 48.6789C236.364 49.1605 235.415 49.4013 234.354 49.4013C233.297 49.4013 232.339 49.1605 231.479 48.6789C230.624 48.1973 229.951 47.5339 229.464 46.6887C228.973 45.8435 228.732 44.9 228.732 43.8582C228.732 42.8115 228.973 41.868 229.464 41.0227C229.951 40.1775 230.624 39.519 231.479 39.0374C232.339 38.5559 233.297 38.3151 234.354 38.3151C235.415 38.3151 236.364 38.5559 237.209 39.0374C238.054 39.519 238.717 40.1775 239.209 41.0227C239.695 41.868 239.941 42.8115 239.941 43.8582C239.941 44.9 239.695 45.8435 239.209 46.6887ZM241.012 40.0792C240.349 38.9588 239.435 38.0792 238.27 37.4404C237.101 36.8015 235.798 36.4821 234.354 36.4821C232.899 36.4821 231.587 36.8015 230.422 37.4404C229.253 38.0792 228.334 38.9588 227.67 40.0891C227.002 41.2144 226.673 42.4724 226.673 43.8582C226.673 45.244 227.002 46.502 227.67 47.6273C228.334 48.7526 229.253 49.6372 230.422 50.276C231.587 50.9148 232.899 51.2343 234.354 51.2343C235.798 51.2343 237.101 50.9148 238.27 50.276C239.435 49.6372 240.349 48.7575 241.012 47.6371C241.671 46.5167 242 45.2587 242 43.8582C242 42.4577 241.671 41.1947 241.012 40.0792Z" fill="#D8D8D8"/>
</g>
</svg>
