<svg width="181" height="64" viewBox="0 0 181 64" fill="none" xmlns="http://www.w3.org/2000/svg">
<path d="M28.964 14.3888V22.2741L36.7579 26.7779V37.2221L28.964 41.7223V49.6112L43.5903 41.163V22.8334L28.964 14.3888ZM28.964 14.3888V22.2741L36.7579 26.7779V37.2221L28.964 41.7223V49.6112L43.5903 41.163V22.8334L28.964 14.3888ZM28.964 41.7223V49.6112L43.5903 41.163V22.8334L28.964 14.3888V22.2741L36.7579 26.7779V37.2221L28.964 41.7223ZM27.7174 0L0 15.9973V47.9991L18.622 58.7504V50.8578L18.644 45.0928L26.4708 49.6112V41.7223L18.6732 37.2221V26.7779L26.4708 22.2741V14.3888L11.8407 22.8334V46.9426L6.83247 44.0546V19.9417L27.7174 7.88531L48.5986 19.9417V44.0546L27.7174 56.111L22.7566 53.245V61.1376L27.7174 64L55.4274 47.9991V15.9973L27.7174 0ZM28.964 14.3888V22.2741L36.7579 26.7779V37.2221L28.964 41.7223V49.6112L43.5903 41.163V22.8334L28.964 14.3888ZM28.964 14.3888V22.2741L36.7579 26.7779V37.2221L28.964 41.7223V49.6112L43.5903 41.163V22.8334L28.964 14.3888Z" fill="#E31C79"/>
<path d="M71.421 32.7877C70.9129 33.2008 70.1708 33.4092 69.1984 33.4092H66.5955V28.5968C66.5955 28.5957 66.5966 28.5946 66.5977 28.5946H69.1984C70.1708 28.5946 70.9129 28.803 71.421 29.2161C71.9328 29.6292 72.1887 30.2251 72.1887 31.0001C72.1887 31.7787 71.9328 32.3746 71.421 32.7877ZM72.525 28.2583C71.7281 27.593 70.635 27.2603 69.2459 27.2603H65.0638V37.9897H66.5933C66.5944 37.9897 66.5955 37.9886 66.5955 37.9876V34.742C66.5955 34.7409 66.5966 34.7398 66.5977 34.7398H69.2459C70.635 34.7398 71.7281 34.4108 72.525 33.7455C73.322 33.0802 73.7204 32.1662 73.7204 31.0001C73.7204 29.8376 73.322 28.9237 72.525 28.2583Z" fill="#E31C79"/>
<path d="M80.1142 33.4238H77.5077V28.5968C77.5077 28.5957 77.5088 28.5946 77.5099 28.5946H80.1142C81.083 28.5946 81.8251 28.803 82.3332 29.2161C82.845 29.6292 83.1009 30.2251 83.1009 31.0001C83.1009 31.7787 82.845 32.3746 82.3332 32.795C81.8251 33.2154 81.083 33.4238 80.1142 33.4238ZM82.2733 34.3885C83.0322 34.1217 83.6135 33.6976 84.0222 33.1167C84.4279 32.5355 84.6327 31.8299 84.6327 31.0001C84.6327 29.8376 84.2342 28.9237 83.4373 28.2583C82.6403 27.593 81.5473 27.2603 80.1581 27.2603H75.976V37.9897H77.5055C77.5066 37.9897 77.5077 37.9886 77.5077 37.9876V34.7274C77.5077 34.7263 77.5088 34.7252 77.5099 34.7252H80.1581C80.2897 34.7252 80.4579 34.7216 80.6626 34.7069C80.7686 34.6996 80.871 34.7472 80.9295 34.8312L83.0571 37.8655C83.1156 37.9422 83.2033 37.9897 83.302 37.9897H84.2415C84.4828 37.9897 84.6254 37.7192 84.4864 37.5218L82.2733 34.3885Z" fill="#E31C79"/>
<path d="M95.5704 34.7325C95.2048 35.3613 94.7113 35.8548 94.0825 36.2131C93.4538 36.5713 92.7482 36.7504 91.9586 36.7504C91.1726 36.7504 90.4598 36.5713 89.82 36.2131C89.1839 35.8548 88.6831 35.3613 88.3212 34.7325C87.9556 34.1037 87.7765 33.4018 87.7765 32.6268C87.7765 31.8482 87.9556 31.1463 88.3212 30.5175C88.6831 29.8887 89.1839 29.3989 89.82 29.0406C90.4598 28.6824 91.1726 28.5032 91.9586 28.5032C92.7482 28.5032 93.4538 28.6824 94.0825 29.0406C94.7113 29.3989 95.2048 29.8887 95.5704 30.5175C95.9323 31.1463 96.1151 31.8482 96.1151 32.6268C96.1151 33.4018 95.9323 34.1037 95.5704 34.7325ZM96.912 29.8156C96.4185 28.9821 95.7386 28.3278 94.8722 27.8525C94.0021 27.3773 93.0334 27.1397 91.9586 27.1397C90.8765 27.1397 89.9004 27.3773 89.034 27.8525C88.164 28.3278 87.4804 28.9821 86.9869 29.8229C86.4897 30.6601 86.2448 31.5959 86.2448 32.6268C86.2448 33.6577 86.4897 34.5936 86.9869 35.4307C87.4804 36.2679 88.164 36.9259 89.034 37.4012C89.9004 37.8764 90.8765 38.114 91.9586 38.114C93.0334 38.114 94.0021 37.8764 94.8722 37.4012C95.7386 36.9259 96.4185 36.2716 96.912 35.4381C97.4019 34.6046 97.6468 33.6687 97.6468 32.6268C97.6468 31.585 97.4019 30.6455 96.912 29.8156Z" fill="#E31C79"/>
<path d="M106.351 32.7877C105.839 33.2008 105.101 33.4092 104.128 33.4092H101.524C101.523 33.4092 101.522 33.4081 101.522 33.407V28.5968C101.522 28.5957 101.523 28.5946 101.524 28.5946H104.128C105.101 28.5946 105.839 28.803 106.351 29.2161C106.863 29.6292 107.119 30.2251 107.119 31.0001C107.119 31.7787 106.863 32.3746 106.351 32.7877ZM107.455 28.2583C106.658 27.593 105.565 27.2603 104.176 27.2603H99.9924C99.9913 27.2603 99.9902 27.2614 99.9902 27.2625V37.9897H101.522V34.742C101.522 34.7409 101.523 34.7398 101.524 34.7398H104.176C105.565 34.7398 106.658 34.4108 107.455 33.7455C108.252 33.0802 108.65 32.1662 108.65 31.0001C108.65 29.8376 108.252 28.9237 107.455 28.2583Z" fill="#E31C79"/>
<path d="M119.508 34.7325C119.146 35.3613 118.652 35.8548 118.024 36.2131C117.395 36.5713 116.686 36.7504 115.9 36.7504C115.114 36.7504 114.401 36.5713 113.761 36.2131C113.121 35.8548 112.624 35.3613 112.259 34.7325C111.897 34.1037 111.718 33.4018 111.718 32.6268C111.718 31.8482 111.897 31.1463 112.259 30.5175C112.624 29.8887 113.121 29.3989 113.761 29.0406C114.401 28.6824 115.114 28.5032 115.9 28.5032C116.686 28.5032 117.395 28.6824 118.024 29.0406C118.652 29.3989 119.146 29.8887 119.508 30.5175C119.873 31.1463 120.053 31.8482 120.053 32.6268C120.053 33.4018 119.873 34.1037 119.508 34.7325ZM120.849 29.8156C120.36 28.9821 119.68 28.3278 118.813 27.8525C117.943 27.3773 116.974 27.1397 115.9 27.1397C114.818 27.1397 113.842 27.3773 112.971 27.8525C112.105 28.3278 111.421 28.9821 110.928 29.8229C110.431 30.6601 110.182 31.5959 110.182 32.6268C110.182 33.6577 110.431 34.5936 110.928 35.4307C111.421 36.2679 112.105 36.9259 112.971 37.4012C113.842 37.8764 114.818 38.114 115.9 38.114C116.974 38.114 117.943 37.8764 118.813 37.4012C119.68 36.9259 120.36 36.2716 120.849 35.4381C121.339 34.6046 121.588 33.6687 121.588 32.6268C121.588 31.585 121.339 30.6455 120.849 29.8156Z" fill="#E31C79"/>
<path d="M131.5 27.2603H123.933C123.932 27.2603 123.931 27.2614 123.931 27.2625V37.9897H125.463V33.6541H130.842C130.843 33.6541 130.844 33.653 130.844 33.6519V32.3366C130.844 32.3355 130.843 32.3344 130.842 32.3344H125.465C125.464 32.3344 125.463 32.3333 125.463 32.3322V28.5968C125.463 28.5957 125.464 28.5946 125.465 28.5946H131.502V27.2625C131.502 27.2614 131.501 27.2603 131.5 27.2603Z" fill="#212322"/>
<path d="M139.015 34.0818H135.3C135.085 34.0818 134.942 33.8625 135.03 33.6651L136.883 29.4464C136.989 29.2088 137.326 29.2088 137.432 29.4464L139.289 33.6651C139.376 33.8625 139.23 34.0818 139.015 34.0818ZM142.608 37.5693L138.006 27.4358C137.954 27.3298 137.848 27.2603 137.731 27.2603H136.598C136.481 27.2603 136.375 27.3298 136.328 27.4358L131.74 37.5693C131.648 37.7667 131.795 37.9897 132.01 37.9897H132.931C133.052 37.9897 133.158 37.9203 133.206 37.8106L134.229 35.4856C134.277 35.3796 134.383 35.3101 134.503 35.3101H139.815C139.932 35.3101 140.038 35.3796 140.089 35.4856L141.109 37.8106C141.157 37.9203 141.266 37.9897 141.383 37.9897H142.334C142.553 37.9897 142.696 37.7667 142.608 37.5693Z" fill="#212322"/>
<path d="M153.319 27.2603H152.087V34.4145C152.087 34.696 151.733 34.8239 151.557 34.6009L145.738 27.3737C145.683 27.3042 145.595 27.2603 145.507 27.2603H144.394C144.393 27.2603 144.392 27.2614 144.392 27.2625V37.9897H145.924V30.8356C145.924 30.5541 146.279 30.4298 146.458 30.6491L152.274 37.8801C152.329 37.9495 152.416 37.9897 152.504 37.9897H153.319C153.488 37.9897 153.619 37.8581 153.619 37.6936V27.5601C153.619 27.3956 153.488 27.2603 153.319 27.2603Z" fill="#212322"/>
<path d="M165.083 34.7325C164.725 35.343 164.217 35.8146 163.559 36.1509C162.901 36.4873 162.137 36.6554 161.267 36.6554H158.371V28.5968C158.371 28.5957 158.372 28.5946 158.374 28.5946H161.267C162.137 28.5946 162.901 28.7628 163.559 29.1028C164.217 29.4391 164.725 29.9107 165.083 30.5175C165.441 31.128 165.621 31.8299 165.621 32.6269C165.621 33.4238 165.441 34.1257 165.083 34.7325ZM166.425 29.8303C165.939 29.0151 165.259 28.3863 164.378 27.9366C163.5 27.487 162.491 27.2603 161.358 27.2603H156.838C156.837 27.2603 156.836 27.2614 156.836 27.2625V37.9897H161.358C162.491 37.9897 163.5 37.7667 164.378 37.3171C165.259 36.8675 165.939 36.235 166.425 35.4235C166.911 34.6119 167.152 33.6797 167.152 32.6269C167.152 31.574 166.911 30.6418 166.425 29.8303Z" fill="#212322"/>
<path d="M177.951 34.7325C177.586 35.3613 177.092 35.8548 176.463 36.2131C175.835 36.5713 175.129 36.7504 174.339 36.7504C173.553 36.7504 172.841 36.5713 172.201 36.2131C171.565 35.8548 171.064 35.3613 170.702 34.7325C170.336 34.1037 170.157 33.4018 170.157 32.6268C170.157 31.8482 170.336 31.1463 170.702 30.5175C171.064 29.8887 171.565 29.3989 172.201 29.0406C172.841 28.6824 173.553 28.5032 174.339 28.5032C175.129 28.5032 175.835 28.6824 176.463 29.0406C177.092 29.3989 177.586 29.8887 177.951 30.5175C178.313 31.1463 178.496 31.8482 178.496 32.6268C178.496 33.4018 178.313 34.1037 177.951 34.7325ZM179.293 29.8156C178.799 28.9821 178.119 28.3278 177.253 27.8525C176.383 27.3773 175.414 27.1397 174.339 27.1397C173.257 27.1397 172.281 27.3773 171.415 27.8525C170.545 28.3278 169.861 28.9821 169.368 29.8229C168.871 30.6601 168.626 31.5959 168.626 32.6268C168.626 33.6577 168.871 34.5936 169.368 35.4307C169.861 36.2679 170.545 36.9259 171.415 37.4012C172.281 37.8764 173.257 38.114 174.339 38.114C175.414 38.114 176.383 37.8764 177.253 37.4012C178.119 36.9259 178.799 36.2716 179.293 35.4381C179.783 34.6046 180.028 33.6687 180.028 32.6268C180.028 31.585 179.783 30.6455 179.293 29.8156Z" fill="#212322"/>
</svg>
