<svg width="88" height="63" viewBox="0 0 88 63" fill="none" xmlns="http://www.w3.org/2000/svg">
<path d="M87.1144 13.3976C87.1144 13.3976 86.2569 7.31294 83.6141 4.63059C80.2684 1.11529 76.515 1.10118 74.8 0.889412C62.4856 1.68295e-07 44.0141 0 44.0141 0H43.9719C43.9719 0 25.5003 1.68295e-07 13.1859 0.889412C11.4709 1.10118 7.71757 1.11529 4.37189 4.63059C1.72907 7.31294 0.871566 13.3976 0.871566 13.3976C0.871566 13.3976 -1.67579e-08 20.5412 -1.67579e-08 27.6988V34.4047C-1.67579e-08 41.5482 0.885623 48.6918 0.885623 48.6918C0.885623 48.6918 1.74313 54.7765 4.38594 57.4588C7.73163 60.9741 12.1316 60.8612 14.0856 61.2282C21.1144 61.9059 44 62.1176 44 62.1176C44 62.1176 62.4856 62.0894 74.8 61.2C76.515 60.9882 80.2684 60.9741 83.6141 57.4588C86.2569 54.7765 87.1144 48.6918 87.1144 48.6918C87.1144 48.6918 88 41.5482 88 34.4047V27.6988C88 20.5412 87.1144 13.3976 87.1144 13.3976Z" fill="black" fill-opacity="0.55"/>
</svg>
